<svg id="Layer_1" enable-background="new 0 0 510 510" height="512" viewBox="0 0 510 510" width="512" xmlns="http://www.w3.org/2000/svg"><g><path d="m120 420h-45v-180h30v32.418l330-49.5v-145.836l-330-49.5v32.418h-30v-60h-30v420h-45v90h510v-30h-390zm165-204.918-30 4.5v-139.164l30 4.5zm30-125.664 30 4.5v112.164l-30 4.5zm-90 134.664-30 4.5v-157.164l30 4.5zm180-27-30 4.5v-103.164l30 4.5zm-270-134.664 30 4.5v166.164l-30 4.5zm-30 27.582v120h-30v-120zm-15 390h-60v-30h60z"/><path d="m465 300h-210v30h210c24.813 0 45-20.186 45-45 0-24.813-20.187-45-45-45v30c8.271 0 15 6.729 15 15 0 8.272-6.729 15-15 15z"/><path d="m420 420v30c24.813 0 45-20.186 45-45 0-24.813-20.187-45-45-45h-210v30h210c8.271 0 15 6.729 15 15 0 8.272-6.729 15-15 15z"/></g></svg>